<svg xmlns="http://www.w3.org/2000/svg" width="512" height="512" aria-label="4699201" shape-rendering="geometricPrecision"><path fill="#fff" fill-rule="evenodd" d="m3.3 316a60.3 60.3 0 0 0 90.7 50.2l51-29.6 4-2.2 1 .1.3 119.5a60.2 60.2 0 0 0 117 17l2-7 1.2-9v-68l.5-.7 104 59.9a60.3 60.3 0 0 0 64-101.6l-4-2.8-58.5-33.8.6-1 1.9-1.2 98-56.5a60.3 60.3 0 0 0 -17-111.5l-8-1.2-9 .1-8 1.1-7 1.9-5 2-6 3.1-54 31.3-2 .4-.3-119.5a60.2 60.2 0 0 0 -117-17l-2 7-1.2 9v68l-.5.7-104-59.9a60.6 60.6 0 0 0 -87.3 46.2l-.2 12 1.2 8 3 10 3.9 8 4 6 3.4 3.9 6.4 6.1 5.6 4.2 58.5 33.8-.4 1-2.1 1.3-98 56.4-5 3.1-5 3.9-5.4 5.3-4 5-2.7 4-3.2 6-2 5-2 7-1.1 6Z"/></svg>